<?xml version="1.0" standalone="no"?><!DOCTYPE svg PUBLIC "-//W3C//DTD SVG 1.1//EN" "http://www.w3.org/Graphics/SVG/1.1/DTD/svg11.dtd"><svg t="1669114918563" class="icon" viewBox="0 0 1024 1024" version="1.1" xmlns="http://www.w3.org/2000/svg" p-id="6466" xmlns:xlink="http://www.w3.org/1999/xlink" width="200" height="200"><path d="M469.222268 116.787931a26.52807 26.52807 0 0 1-31.152651 4.072393c-0.920315-0.506173-1.955669-0.805275-2.898991-1.253929l34.051642 55.863101zM486.305609 116.626876h51.388071v85.612273h-51.388071z" fill="#FC5659" p-id="6467"></path><path d="M957.023555 604.485682a61.626571 61.626571 0 0 0 0-85.416705 26.562582 26.562582 0 0 1-4.106904-31.221675 61.626571 61.626571 0 0 0-22.11056-82.50621 26.562582 26.562582 0 0 1-12.044619-29.093447 61.638075 61.638075 0 0 0-42.714104-73.970292 26.551078 26.551078 0 0 1-19.165553-24.975039 61.626571 61.626571 0 0 0-60.407154-60.407154 26.562582 26.562582 0 0 1-24.97504-19.165553 61.638075 61.638075 0 0 0-73.970291-42.714105 26.562582 26.562582 0 0 1-29.093448-12.044618 61.626571 61.626571 0 0 0-82.50621-22.11056 26.52807 26.52807 0 0 1-31.129643-4.072393v102.534559h-85.577761v-1.610551l-212.822767-12.815382-4.118408-6.764313a26.459047 26.459047 0 0 1-24.779472 18.762916A61.626571 61.626571 0 0 0 167.117474 277.302314a26.551078 26.551078 0 0 1-19.165553 24.975039 61.638075 61.638075 0 0 0-42.714104 73.970292 26.562582 26.562582 0 0 1-12.044618 29.093447 61.626571 61.626571 0 0 0-22.11056 82.50621A26.562582 26.562582 0 0 1 67.033254 519.068977a61.626571 61.626571 0 0 0 0 85.416705 26.562582 26.562582 0 0 1 4.106904 31.221676 61.626571 61.626571 0 0 0 22.11056 82.50621 26.562582 26.562582 0 0 1 12.044618 29.093447 61.638075 61.638075 0 0 0 42.714105 73.970292A26.539574 26.539574 0 0 1 167.117474 846.252346a61.626571 61.626571 0 0 0 60.407154 60.407154 26.551078 26.551078 0 0 1 24.97504 19.165553 61.638075 61.638075 0 0 0 73.970291 42.714105 26.562582 26.562582 0 0 1 29.093448 12.044618 61.626571 61.626571 0 0 0 82.50621 22.11056 26.562582 26.562582 0 0 1 31.221675 4.106904 61.626571 61.626571 0 0 0 85.416705 0 26.562582 26.562582 0 0 1 31.221675-4.106904 61.626571 61.626571 0 0 0 82.50621-22.11056 26.562582 26.562582 0 0 1 29.093448-12.044618 61.638075 61.638075 0 0 0 73.970291-42.714105 26.551078 26.551078 0 0 1 24.97504-19.165553 61.626571 61.626571 0 0 0 60.407154-60.407154 26.539574 26.539574 0 0 1 19.165553-24.975039 61.638075 61.638075 0 0 0 42.714104-73.970292 26.562582 26.562582 0 0 1 12.044619-29.093447 61.626571 61.626571 0 0 0 22.11056-82.50621 26.562582 26.562582 0 0 1 4.106904-31.221676z m-590.289829-2.300786a31.842888 31.842888 0 0 0-63.685775 0h-17.083341a48.926229 48.926229 0 0 1 97.840953 0z m60.292115-161.699288h-17.071837a48.926229 48.926229 0 1 1 97.840953 0H490.72312a31.854391 31.854391 0 1 0-63.697279 0z m95.033993 370.645229a31.842888 31.842888 0 0 0-63.685775 0h-17.071837a48.926229 48.926229 0 0 1 97.840953 0z m173.410292-139.657751a31.842888 31.842888 0 1 0-63.685775 0h-17.083341a48.926229 48.926229 0 0 1 97.852457 0z m59.187737-173.973984a31.842888 31.842888 0 0 0-63.685775 0h-17.083341a48.926229 48.926229 0 0 1 97.840953 0z" fill="#FC5659" p-id="6468"></path><path d="M392.36449 115.303924a61.672587 61.672587 0 0 0-36.812587 27.60944 26.562582 26.562582 0 0 1-29.093448 12.044618 61.672587 61.672587 0 0 0-45.578584 6.465211 60.970847 60.970847 0 0 0-19.68323 18.406293l5.153763 8.466895 198.005701 11.918075-52.918094-86.751161a60.970847 60.970847 0 0 0-19.073521 1.840629z" fill="#FC5659" p-id="6469"></path><path d="M490.216947 762.181601a48.972244 48.972244 0 0 0-48.914725 48.914725h17.071837a31.842888 31.842888 0 0 1 63.685775 0h17.083341a48.983748 48.983748 0 0 0-48.926228-48.914725zM663.627238 622.52385a48.972244 48.972244 0 0 0-48.926228 48.914725h17.083341a31.842888 31.842888 0 1 1 63.685775 0h17.083341a48.972244 48.972244 0 0 0-48.926229-48.914725zM334.879335 553.235659a48.972244 48.972244 0 0 0-48.914725 48.914725h17.083341a31.842888 31.842888 0 0 1 63.685775 0h17.071837a48.983748 48.983748 0 0 0-48.926228-48.914725zM722.814975 448.549866a48.983748 48.983748 0 0 0-48.926228 48.914724h17.083341a31.842888 31.842888 0 0 1 63.685775 0h17.071837a48.972244 48.972244 0 0 0-48.914725-48.914724zM490.72312 440.451097h17.071837a48.926229 48.926229 0 1 0-97.840953 0h17.071837a31.854391 31.854391 0 1 1 63.697279 0z" fill="" p-id="6470"></path><path d="M469.222268 217.711939v1.610551H554.800029V99.555039h-85.577761v75.925961L435.159122 119.640907l-64.111421-105.214975L131.512801 0l120.7913 198.132244 4.118408 6.764313z m68.471412-101.085063v85.612273h-51.388071v-85.612273z m-176.585377-85.692799l50.375724 82.621249 52.918093 86.751162-198.040213-11.918075-5.153762-8.466895L163.102602 19.016002z" fill="#8CBE46" p-id="6471"></path></svg>